<svg xmlns="http://www.w3.org/2000/svg" x="30px" y="30px" viewBox="0 0 864 864" enable-background="new 0 0 864 864"><style>.fs0,.ls0{fill:#fff}</style><g transform="translate(182.3849056604 187.0849056604) scale(.58522)"><g><path class="ls0" d="M195.3,546.5c-13.5-27.9-22-58.1-24.9-89.4c12.8-1.6,25.8-3.2,38.9-4.6c2.6-0.3,5.3-0.5,7.9-0.8l10.6,10 l26.1,24.7c-1.6,11.8-3.7,23.4-6.4,34.8c-1.5,6.4-3.1,12.8-5,19c-5.3,18.2-11.9,35.3-19.6,51.2c-5.9,12.1-12.5,23.5-19.8,34 c-3,4.3-6.5,9.1-10.6,14.1c11.8,13.7,24.9,26.3,38.9,37.8c11.2-13.4,21.5-28.3,30.7-44.7c21.8-38.6,37.4-84.8,44.6-135.5 c0.2-1.7,0.5-3.3,0.7-5c1.2-8.8,2.1-17.7,2.7-26.8l-20.9-19.7l-24.6-23.3l29.4-31.1l14-14.8c-0.2-1.6-0.4-3.1-0.6-4.7 c-1.2-9.2-2.7-18.3-4.5-27.3c-8.3-42-22.3-80.4-40.9-113.2c-9.2-16.3-19.5-31.3-30.7-44.6c-14,11.5-27,24.1-38.9,37.8 c4.1,5,7.6,9.8,10.6,14.2c7.2,10.5,13.8,21.9,19.8,34c7.7,15.8,14.3,32.9,19.6,51.2c1.8,6.3,3.5,12.6,5,19 c1.2,5.2,2.3,10.5,3.3,15.8l-25.3,26.8l-11.7,12.4c-3.2,0.3-6.4,0.7-9.6,1c-11.2,1.2-22.4,2.5-33.4,3.8 c3.3-29.8,11.6-58.5,24.5-85.1L146.8,294c-17.2,35.5-28,74.8-30.8,116.3c-0.5,7.2-0.7,14.4-0.7,21.7c0,11.1,0.6,22,1.7,32.8 c3.8,37.4,14.2,72.8,29.9,105.2L195.3,546.5z"/></g><g><path class="ls0" d="M276.6,220c26.8,46.5,44,101.9,50.3,161.1c0.3,2.8,0.6,5.6,0.8,8.4c1.2,14,1.9,28.2,1.9,42.5 c0,3.8-0.1,7.7-0.1,11.5c-0.3,13.3-1.2,26.4-2.5,39.3c-6.3,59.2-23.5,114.6-50.3,161.1c-4.4,7.7-9.1,15.1-14,22.2 c-5.4,7.8-11,15.2-16.8,22.1c14.7,10.7,30.3,20.1,46.7,28.2c42.1,20.7,89.4,32.3,139.4,32.3s97.4-11.6,139.4-32.3 c16.4-8,32-17.5,46.7-28.2c-5.8-7-11.4-14.3-16.8-22.1c-4.9-7.2-9.6-14.6-14-22.2c-14.7-25.6-26.6-53.8-35.3-83.9l-51.3,16.7 c9.9,33.8,23.4,65.6,40.1,94.5c-33.7,15.4-70.7,23.5-108.8,23.5s-75.1-8.1-108.8-23.5c35.6-61.7,56.4-136.6,59.9-215.6 c0.2-4.7,0.3-9.3,0.4-14c9.8-0.2,19.5-0.4,29.4-0.4c6.4,0,12.7-0.1,19.1-0.1s12.8,0,19.1,0.1c9.8,0.1,19.6,0.2,29.4,0.4 c-0.1-3.2-0.1-6.5-0.1-9.7c0-7.9,0.2-15.8,0.5-23.7c0.3-6.9,0.7-13.8,1.3-20.6c-16.6-0.4-33.4-0.5-50.2-0.5s-33.6,0.2-50.2,0.5 c-5.9-71.4-26.1-138.7-58.6-195c33.7-15.4,70.7-23.5,108.8-23.5s75.1,8.1,108.8,23.5c-12.6,21.8-23.3,45.3-32.1,70l50.4,19.3 c7.7-22,17.2-42.7,28.3-62c4.4-7.7,9.1-15.1,14-22.2c5.4-7.8,11-15.2,16.8-22.1c-14.7-10.7-30.3-20.1-46.7-28.2 c-42.1-20.7-89.4-32.3-139.4-32.3s-97.4,11.6-139.4,32.3c-16.4,8.1-32,17.5-46.7,28.2c5.8,7,11.4,14.3,16.8,22.1 C267.6,205,272.2,212.4,276.6,220z"/></g><g><path class="ls0" d="M668.7,317.5c17.1,35.2,26.1,74.2,26.1,114.5s-9,79.2-26.1,114.5c-7.6,15.8-16.9,30.8-27.7,44.9 c-7.7-15.8-14.3-32.9-19.6-51.2c-1.8-6.3-3.5-12.6-5-19c-6.6-28.5-10-58.5-10-89.2s3.4-60.7,10-89.2c1.5-6.4,3.1-12.8,5-19 c5.3-18.2,11.9-35.3,19.6-51.2c5.9-12.1,12.5-23.5,19.8-34c3-4.3,6.5-9.1,10.6-14.2c-11.9-13.7-24.9-26.3-38.9-37.8 c-11.2,13.4-21.5,28.3-30.7,44.7c-22.5,39.9-38.4,87.9-45.3,140.5c-2.6,19.5-3.9,39.6-3.9,60.2s1.3,40.7,3.9,60.1 c7,52.6,22.9,100.6,45.3,140.5c9.2,16.3,19.5,31.3,30.7,44.7c14-11.5,27-24.1,38.9-37.8c18.2-21,33.7-44.3,45.9-69.6 c20.2-41.7,31.6-88.5,31.6-138s-11.3-96.3-31.6-138L668.7,317.5z"/></g></g><g class="fs0"><g><g><g><path d="M224.6,372.7c-2.7,4.9-4,10.6-6.1,16.2c-3.1-5.1-8.4-11.4-13.7-13.9c-1-0.5-2.1-0.1-2.6,0.9c-0.4,1,0,2.1,1,2.5 c4.8,2.2,10.2,8.6,12.7,13.4c0.2,0.5,0.7,0.8,1.2,0.9c-1.4,3.7-2.1,7.8-3,11.8c-3.8-1.4-6.4-3.7-9-6.3c-3.3-3.2-6.4-6.6-12.2-8.4 c-1-0.3-2.2,0.3-2.5,1.3c-0.4,1,0.3,2.1,1.3,2.4c4.8,1.4,7.6,4.3,10.6,7.2c2.9,2.9,6.1,5.7,11,7.3c-0.7,3.9-1.8,7.7-2.3,11.9 c-5.4-4.4-12.9-9.5-19.9-11.3c-1-0.3-2.1,0.4-2.4,1.4c-0.3,1.1,0.3,2.1,1.4,2.4c6.9,1.7,15.5,7.5,20.6,11.9 c-0.4,4.5-0.7,9.2-1.1,13.8c-5.6-4.1-14-8.9-21.4-10.2c-1.1-0.2-2.1,0.5-2.3,1.6s0.5,2.1,1.6,2.3c7.5,1.2,16.7,6.6,21.9,10.7l0,0 c0.1,3.5,0.2,7.1,0.4,10.6c-6-3.7-14.9-7.9-22.4-8.8c-1.1-0.1-2,0.7-2.1,1.8c-0.1,1.1,0.7,2.1,1.8,2.1c7.5,0.7,17.4,5.5,22.7,9.3 h0.1c1.8,26.6,9,54.4,21.7,79.9c-6.8,4.5-0.3,16.4,6,11.6l12.2,18.9c-14.9,11,6,35.7,16.5,20.1c5.5,5.3,10.3,11.2,16.1,15.9 c-2.1,5.7,5.4,11.8,9.6,8.1c23.4,18.9,48.7,31.6,71.6,39.9c-0.4,1.1-0.9,2.1-1.2,3l-4.9,12.8c-1.2,2.9,0.5,5.4,3.6,5.4 c0,0,4.8,0.2,9.8-0.3c4.8-0.4,9.7-0.8,9.7-0.8c3.1-0.3,7.8-1.5,10.5-2.8l10.8-5.9c2.6-1.5,2.9-4.4,0.8-6.3c0,0-2.1-2-4.2-4 s-4.1-4-4.1-4c-1.9-2.2-5.3-5.3-7.4-7l-9.6-7.4c-2-1.9-4.7-1.1-6.1,1.8l-4.1,8.3c-0.5,1.1-1.2,2.5-1.8,3.9 c-22.7-8.2-47.9-20.8-71.1-39.7c0.1-0.3,0.2-0.5,0.3-0.9c1.8-7.1-3.5-12.4-9.6-7c-5.9-4.9-10.8-10.8-16.4-16.3l0.3-0.5 c5.6-13.1-1.7-24.7-15.4-18c-4.3-6.7-8.9-13.2-12.8-20.1c3.2-5.4,0.9-11-5.1-9.9c-14.2-28.2-21.5-59.3-21.9-88.3 c5.6-0.7,9.2-2.9,12.7-5c3.3-2,6.7-3.8,11.6-4.1c1-0.1,1.8-0.7,1.9-1.5c0,0,0-0.1,0-0.2c0-0.9-1-1.5-2-1.5 c-6,0.3-9.9,2.3-13.7,4.5c-3.3,1.9-6.2,3.7-10.5,4.2c-0.4-4.6,0.5-8.9,0.7-13.4c0.2,0.1,0.4,0.2,0.7,0.2 c8.6-0.3,19.4-4.4,25.2-7.6c0.5-0.3,0.7-0.7,0.7-1.1s-0.1-0.7-0.4-1.1c-0.6-0.7-1.8-0.9-2.7-0.4c-5.4,3-15.5,6.6-23,6.8 c-0.1,0-0.2,0.1-0.3,0.1c0.4-4.8,0.7-9.5,1.8-14.1c8.5,0.2,19.5-2.9,25.6-5.6c0.5-0.2,0.8-0.6,0.8-1c0.1-0.4,0-0.8-0.3-1.1 c-0.6-0.8-1.8-1.1-2.7-0.7c-5.5,2.5-15.3,5-22.7,4.9c0.8-3.7,1.5-7.4,2.3-10.9c8.2,0.6,19.4-1.6,25.5-3.8c0.5-0.2,0.8-0.5,1-1 c0.1-0.4,0-0.7-0.2-1.1c-0.5-0.8-1.7-1.2-2.6-0.8c-5.6,2-15.4,3.8-22.7,3.3c2.7-7.6,4.7-15,8-21.6c0.4-0.9,0-1.9-1-2.3 C226.1,371.5,225,371.8,224.6,372.7z"/></g><g><path d="M598.3,290.6c-3.4-4.3-6.7-9.3-10.9-13.5c6.2-0.4,13.9-1.5,18.7-4.9c0.9-0.6,1.1-1.8,0.5-2.7c-0.6-0.9-1.8-1.1-2.6-0.5 c-4.2,3-12.5,4.5-18,4.5c-0.5,0-1,0.2-1.4,0.6c-2.8-2.8-5.7-5.8-8.6-8.7c3.1-2.6,6.3-3.6,9.8-4.4c4.3-1.1,8.9-2.1,13.3-6.3 c0.8-0.7,0.8-2,0.1-2.8c-0.8-0.8-2-0.8-2.8-0.1c-3.6,3.4-7.4,4.3-11.4,5.4c-3.9,1-7.8,2.2-11.7,5.8c-3.1-2.5-6.1-5-9.3-7.6 c6.5-2.4,14.8-6.6,19.9-11.8c0.8-0.8,0.7-2-0.1-2.7s-2-0.7-2.8,0.1c-5,5.2-14.3,9.8-20.6,11.7c-3.5-3-7.6-5.1-11.5-7.7 c6.4-2.9,14.9-8,19.7-13.7c0.7-0.8,0.6-2.1-0.3-2.7c-0.9-0.7-2.1-0.5-2.8,0.3c-4.8,5.8-14.3,11.5-20.4,13.8l0,0 c-3-1.8-6-3.8-9.2-5.2c6.4-3.6,14.2-8.7,18.7-14.8c0.6-0.9,0.5-2.1-0.4-2.8s-2.1-0.5-2.7,0.4c-4.3,5.9-13.5,12.4-19.5,15.2 l-0.1,0.1c-23.9-11.9-51.5-19.6-80.1-21.3c-0.5-8.1-14-8.2-13.1-0.4c-7.5-0.5-15,0.8-22.5,1.2c-2.2-19.2-33.8-12.3-25.6,4 c-7.4,1.6-14.6,4-21.8,6c-4-5.1-12.8-1.1-11.8,4.3c-28.1,10.8-51.7,26.4-70.4,41.9c-0.7-0.9-1.4-1.8-2-2.5l-8.6-10.6 c-2-2.5-4.9-2.2-6.4,0.6c0,0-2.3,4.3-4.6,8.6c-2.4,4.2-4.2,8.7-4.2,8.7c-1.2,2.9-2.4,7.7-2.6,10.7c0,0-0.2,3-0.4,6.1 c-0.1,3-0.2,5.9-0.2,5.9c0.1,3.1,2.4,4.7,5.1,3.8l11.5-2.9c2.8-0.7,7.1-2.1,9.5-3.2c-0.2-0.3,11.5-4.3,11.5-4.3 c2.5-0.9,3.1-3.7,1.3-6.3l-5.2-7.7c-0.7-1-1.6-2.3-2.5-3.6c18.5-15.5,42.1-31,70-41.6c0.2,0.2,0.4,0.4,0.6,0.7 c5.2,5,12.3,2.8,10.8-4.9c7.4-1.9,14.7-4.5,22.3-6l0.3,0.5c8.6,11.7,22.1,10.2,23.2-4.2c7.9-0.4,15.9-1.7,23.8-1.1 c3.1,5.4,9.1,6.1,11.1,0.3c31.5,1.7,62.2,10.8,87.4,25.2c-2.2,5.2-2.2,9.6-2.2,13.8c0,4-0.1,7.7-2.3,12.1 c-0.5,0.9-0.3,1.9,0.4,2.3l0.1,0.1c0.8,0.4,1.8-0.1,2.3-1.1c2.8-5.3,2.9-9.6,2.9-14c0-3.7,0-7.4,1.7-11.4 c3.9,2.4,7.6,4.8,11.3,7.2c-0.2,0.2-0.4,0.3-0.6,0.5c-3.9,7.5-5.8,18.9-6.1,25.9c0,0.5,0.2,1,0.5,1.2s0.7,0.3,1.1,0.2 c0.9-0.2,1.7-1.1,1.8-2.1c0.2-6.4,2.3-17.1,5.9-23.7c0.1-0.1,0-0.2,0.1-0.3c3.8,3,7.5,6,11.2,8.9c-4.5,7.3-7,18-7.9,24.8 c-0.1,0.5,0.1,1,0.4,1.3c0.3,0.2,0.6,0.4,1.1,0.3c0.9-0.1,1.8-1,1.9-2c0.8-6.2,3.5-16,7.2-22.2c3,2.2,5.6,5.1,8.2,7.6 c-4.8,7-8.2,17.5-9.3,23.8c-0.1,0.5,0.1,1,0.4,1.3c0.3,0.2,0.6,0.4,1.1,0.3c1-0.1,1.9-0.9,2-1.9c0.9-5.8,4.1-15,8.3-21.1 c5.8,5.5,10.5,11.7,14.8,17.7c0.6,0.8,1.7,0.9,2.6,0.2C598.6,292.5,598.9,291.3,598.3,290.6z"/></g><g><path d="M482.6,655.3c5.4-0.8,11.2-1.8,17.1-2.8c-2.9,5.1-5.7,12.8-5.2,18.6c0.1,1.1,1,1.9,2.1,1.8c1.1-0.1,1.8-1,1.7-2.1 c-0.5-5.2,2.4-13,5.3-17.5c0.3-0.4,0.3-1,0.2-1.5c3.8-1.1,7.8-2.3,11.7-3.5c0.7,4-0.1,7.3-1,10.8c-1.2,4.4-2.5,8.9-1.2,14.9 c0.2,1.1,1.3,1.7,2.3,1.4c1.1-0.3,1.7-1.4,1.4-2.4c-1.2-4.9-0.1-8.7,1-12.7c1.1-3.9,1.9-8,0.8-13.1c3.9-1.1,7.6-2.3,11.3-4.1 c-1,7.1-1.6,16.3,0.2,23.1c0.3,1,1.4,1.7,2.4,1.4c1.1-0.3,1.7-1.3,1.4-2.4c-2-7-1.4-17.5,0-24c4.1-1.9,8.5-3.6,12.6-5.9 c-0.7,7.1-0.7,16.5,1.8,23.6c0.4,1,1.5,1.6,2.5,1.2c1-0.4,1.6-1.5,1.2-2.5c-2.6-6.9-2.6-17.8-1.7-24.5l0,0c3-1.8,6.1-3.6,9.1-5.4 c-0.3,7,0.5,16.7,3.5,23.6c0.4,1,1.6,1.4,2.6,1c1-0.5,1.4-1.6,1-2.6c-3.1-6.8-3.9-17.8-3.2-24.2v-0.1 c22.2-14.9,42.6-35.1,58.3-58.9c7.6,3.8,14.1-8.1,6.8-11.2c3.7-6.5,7.5-13,10.3-20c8.4,3.6,15.9-1.8,18.4-8.7 c2.3-7.1,0-14.8-9.1-15.5c2.7-7.2,4.1-14.6,5.8-21.8c3.1-0.5,5.1-3.1,5.7-5.8c0.5-2.7-0.7-5.6-3.4-6.5c4.5-29.7,3.1-58-1.2-82 c1.1-0.2,2.2-0.3,3.2-0.4l13.5-2.1c3-0.5,4.7-3.2,2.9-5.8L664,370.4c-1.6-2.6-5.2-6-7.9-7.6l-10.4-6.4c-2.6-1.5-5.2-0.3-5.9,2.5 l-3,11.3c-0.6,2.7-1.6,7.1-2.1,9.9l-1.9,12.1c-0.4,2.6,1.8,4.5,5,4.3l9.2-0.6c1.2-0.1,2.7-0.2,4.3-0.4 c4.2,23.8,5.7,51.9,1.1,81.4c-0.3,0.1-0.6,0.1-0.9,0.2c-6.7,2.1-9.1,9.2-1.4,11.8c-1.6,7.4-3.3,15-6,22.3c-0.2,0-0.4,0-0.6,0 c-7.2,0.8-11.9,4.5-13.7,8.7c-2,4.2-0.5,9.4,5.7,13.5c-2.9,7.4-7,14.3-10.9,21.2c-6,0.1-9.6,5-5.8,9.5 c-17.4,26.3-40.6,48.3-65.5,63c-3.3-4.5-7.2-6.6-10.7-8.6c-3.4-1.9-6.6-3.8-9.3-7.9c-0.6-0.8-1.5-1.2-2.2-0.8l-0.1,0.1 c-0.7,0.5-0.8,1.6-0.3,2.5c3.2,5.1,6.9,7.4,10.6,9.4c3.2,1.8,6.3,3.6,8.9,7.1c-3.9,2.4-7.7,4.5-11.9,6.2c0-0.2,0-0.5-0.1-0.7 c-4.6-7.3-13.6-14.7-19.3-18.2c-0.5-0.3-0.9-0.3-1.3-0.1c-0.3,0.2-0.6,0.4-0.7,0.9c-0.3,0.9,0.1,2.1,1,2.6 c5.3,3.2,13.5,10.3,17.4,16.7c0.1,0.1,0.2,0.1,0.3,0.2c-4.4,1.9-8.7,4-13.1,5.6c-4.1-7.5-12.3-15.6-17.7-19.6 c-0.4-0.3-0.9-0.4-1.3-0.2c-0.3,0.1-0.6,0.4-0.8,0.8c-0.4,0.9,0,2.1,0.8,2.7c4.9,3.6,12.1,10.9,15.6,17.4 c-3.6,1.1-7.2,2.2-10.7,3.3c-3.7-7.7-10.8-15.4-16-20c-0.4-0.4-0.9-0.5-1.3-0.4s-0.7,0.3-0.9,0.7c-0.4,0.8-0.2,2,0.6,2.7 c4.6,4,11,11.5,14.2,18c-7.8,2-15.5,2.8-22.7,4c-0.9,0.1-1.6,1.1-1.5,2.2C480.8,654.7,481.7,655.5,482.6,655.3z"/></g></g><g><g><path d="M757.5,334.8l-5.2-14.3c0,0-3.6,5-7.2,10c-3.7,4.8-7.4,9.6-7.4,9.6c-0.3,0.4-0.8,0.6-1.4,0.5c-0.5-0.1-0.9-0.4-1.1-0.8 l-2.5-6.7c-0.1-0.4-0.1-0.8,0.2-1.1c0,0,3.9-5.3,7.9-10.7c3.9-5.6,7.7-11.1,7.7-11.1l-0.6-1.7c0,0-3.6,5.2-7.1,10.4 c-3.6,5-7.3,10-7.3,10c-0.3,0.4-0.8,0.6-1.3,0.6s-0.9-0.3-1.1-0.8l-2.4-6.7c-0.1-0.4-0.1-0.8,0.2-1.2c0,0,1-1.4,2.4-3.4 c1.5-2.1,3.4-4.8,5.1-7.6c3.4-5.6,6.9-11.2,6.9-11.2l-0.8-1.7c0,0-3.2,5.2-6.3,10.5c-1.6,2.5-3.2,5.1-4.4,7 c-1.3,1.9-2.2,3.2-2.2,3.2c-0.3,0.4-0.8,0.7-1.3,0.7s-0.9-0.3-1.1-0.7c0.2-0.1-3-6.5-3-6.5c-0.2-0.4-0.1-0.8,0.1-1.1 c0,0,3.4-5.6,6.9-11.2c3.3-5.8,6.7-11.6,6.7-11.6l-0.8-1.7c0,0-3.1,5.4-6.2,10.8c-3.2,5.2-6.3,10.4-6.3,10.4 c-0.3,0.4-0.8,0.7-1.3,0.7s-1-0.3-1.2-0.7l-3.1-6.4c-0.2-0.4-0.1-0.8,0.1-1.2c0,0,3.4-5.8,6.7-11.6c1.6-3,3.2-6,4.5-8.2 c1.1-2.2,1.8-3.7,1.8-3.7l-1-1.6c0,0-0.7,1.4-1.7,3.4s-2.4,4.8-3.9,7.5c-3.1,5.4-6.2,10.8-6.2,10.8c-0.3,0.4-0.7,0.7-1.3,0.8 c-0.5,0-1-0.2-1.2-0.7l-3.1-6.4c-0.2-0.4-0.1-0.8,0.1-1.2c0,0,2.9-5.8,5.9-11.6c2.8-6,5.6-12,5.6-12s-1.6-2.6-4.4-7.2 c-1.4-2.3-3-5.1-5.1-8.2c-2.2-3-4.7-6.3-7.5-10c-5.5-7.3-11.6-16.1-19.6-24.3c-3.8-4.2-7.8-8.6-11.9-13.1 c-4-4.4-8.8-8.3-13.3-12.4c-4.5-4.1-9-8.3-13.5-12.2c-4.8-3.6-9.5-7.1-14.1-10.6c-4.6-3.3-8.9-6.9-13.3-9.7 c-4.5-2.7-8.7-5.3-12.6-7.7c-7.8-4.8-14.3-8.9-19.2-10.9c-4.8-2.3-7.6-3.6-7.6-3.6s-4.4,1.7-8.9,3.4c-4.3,1.8-8.6,3.5-8.6,3.5 c-0.3,0.1-0.7,0.1-1,0c-0.1-0.1-0.3-0.2-0.4-0.3c0,0-1.7-2.1-4.5-4.6c-2.8-2.6-6.6-6.1-10.4-9.6c-3.9-3.6-7.9-7.1-10.8-9.8 c-3-2.8-5.2-4.2-5.2-4.2c-0.5-0.4-0.7-1.1-0.4-1.7c0.2-0.4,0.5-0.6,0.9-0.7h-0.1c0,0,2.9-0.5,7-0.5c4.2-0.1,9.8-0.2,15.4-0.3 c5.8,0,11.5-0.1,15.8-0.1c4.4,0,7.2,0.4,7.2,0.4s1.7,4.9,3.3,9.8c1.5,4.8,3,9.7,3,9.7l0.1-0.3c0,0,2.8,1.4,7.7,3.7 c5.1,2.1,11.6,6.3,19.7,11.2c4,2.4,8.3,5.1,12.9,7.9c4.5,2.9,8.9,6.5,13.6,9.9c4.7,3.5,9.5,7.1,14.4,10.8 c4.6,4.1,9.2,8.3,13.8,12.5c4.5,4.3,9.5,8.2,13.5,12.8c4.1,4.5,8.2,9,12.1,13.4c8.2,8.4,14.3,17.5,20,24.9 c2.8,3.8,5.4,7.2,7.6,10.2c2,3.2,3.7,6.1,5.1,8.4c2.8,4.7,4.5,7.3,4.5,7.3s6.3,0.5,12.7,1.1c6.4,0.7,12.9,1.4,12.9,1.4 c0.5,0.1,0.8,0.4,1,0.8l3.6,7.4c0.2,0.5,0.2,1.1-0.1,1.5s-0.8,0.6-1.4,0.6c0,0-5.7-0.9-11.4-1.9c-5.5-0.9-11.5-1.4-11.5-1.4 l1,1.6c0,0,1.6,0.2,3.9,0.4c2.3,0.3,5.4,0.8,8.4,1.2c6.2,1.1,12.4,2.1,12.4,2.1c0.4,0.1,0.8,0.4,1,0.8l3.6,7.4 c0.2,0.5,0.2,1.1-0.1,1.5s-0.8,0.6-1.4,0.5c0,0-5.8-1.1-11.6-2.2c-5.7-0.9-11.4-1.9-11.4-1.9l0.8,1.7c0,0,6.2,1,12.4,2.1 c6.3,1.2,12.6,2.5,12.6,2.5c0.4,0.1,0.8,0.4,1,0.8c0,0,3.7,7.4,3.5,7.5c0.2,0.5,0.1,1.1-0.3,1.5c-0.3,0.4-0.9,0.6-1.4,0.5 c0,0-5.6-1.5-11.5-2.6c-5.8-1.1-11.5-2.2-11.5-2.2l0.8,1.7c0,0,6.3,1.2,12.6,2.4c6.3,1.3,12.3,3,12.3,3c0.4,0.1,0.8,0.4,0.9,0.9 l2.8,7.8c0.2,0.5,0.1,1.1-0.3,1.5c-0.4,0.4-0.9,0.5-1.4,0.4c0,0-5.6-1.6-11.2-3.1c-5.5-1.4-11.1-2.8-11.1-2.8l0.6,1.8 c0,0,6,1.5,12.1,3.1c6.1,1.7,12.2,3.5,12.2,3.5c0.4,0.1,0.8,0.5,0.9,0.9l2.8,7.8c0.2,0.5,0.1,1.1-0.3,1.4 c-0.4,0.4-0.9,0.5-1.4,0.4c0,0-5.7-1.7-11.3-3.4c-5.6-1.6-11.2-3.1-11.2-3.1l5,13.6L757.5,334.8z M718.1,292.4 c0,0,3-5.1,5.7-10.3c2.5-5.2,5.1-10.4,5.1-10.4l-2.3-3.7c0,0-2.5,5.2-5,10.5c-1.3,2.5-2.6,5.1-3.5,7c-1.1,1.9-1.8,3.2-1.8,3.2 L718.1,292.4z M723.4,303.3c0,0,3-5,6-10c2.9-5.2,5.8-10.3,5.8-10.3l-1.9-3.9c0,0-2.9,5.2-5.7,10.4c-3,5.1-5.9,10.1-5.9,10.1 L723.4,303.3z M728.6,314.1c0,0,3.1-4.8,6.1-9.7c3-5,5.9-10,5.9-10l-1.9-3.9c0,0-2.9,5.1-5.9,10.1c-3,4.9-6.1,9.8-6.1,9.8 L728.6,314.1z M732.8,325.4c0,0,3.4-4.8,6.8-9.6c1.7-2.5,3.4-4.9,4.6-6.8c1.1-1.8,1.9-3.1,1.9-3.1l-1.9-3.9c0,0-3,4.9-6.1,9.8 c-3.4,4.8-6.8,9.7-6.8,9.7L732.8,325.4z M737,336.6c0,0,3.5-4.6,7-9.2c3.4-4.8,6.8-9.6,6.8-9.6l-1.5-4.1c0,0-3.4,4.8-6.8,9.7 c-3.5,4.7-6.9,9.3-6.9,9.3L737,336.6z M755.4,312.1l1.5,4.2c0,0,5.4,1.5,10.8,2.9c5.5,1.6,11,3.2,11,3.2l-1.6-4.4 c0,0-5.5-1.6-10.9-3.1C760.8,313.5,755.4,312.1,755.4,312.1z M750.5,300.1l1.9,4c0,0,5.5,1.1,10.8,2.5c5.4,1.5,10.8,2.9,10.8,2.9 l-1.6-4.4c0,0-5.4-1.4-10.8-2.8C756.1,301.1,750.5,300.1,750.5,300.1z M744.8,288.4l1.9,4c0,0,5.6,1,11.2,2 c5.6,1.2,11.3,2.3,11.3,2.3l-2-4.2c0,0-5.6-1.1-11.2-2.2C750.4,289.3,744.8,288.4,744.8,288.4z M739.2,276.7l1.9,4 c0,0,5.5,0.9,11,1.7c5.6,1,11.2,2,11.2,2l-2-4.2c0,0-5.6-1-11.1-1.9C744.6,277.5,739.2,276.7,739.2,276.7z M732.6,265.5l2.3,3.8 c0,0,5.7,0.6,11.4,1.1c5.5,0.8,11,1.7,11,1.7l-2-4.2c0,0-5.6-0.8-11.4-1.4C738.2,266,732.6,265.5,732.6,265.5z M581.6,132.6 c0,0-2.5-1.2-6.2-3s-8.6-4.3-13.9-6c-10.3-3.8-20.7-7.7-20.7-7.7s6.4,5.7,12.7,11.5c3.1,2.8,6.1,5.6,8.4,7.8 c2.3,2.1,3.6,3.8,3.6,3.8s3.9-1.6,7.9-3.2C577.5,134.1,581.6,132.6,581.6,132.6z"/></g><g><path d="M634.2,713.5l12.2-9.1c0,0-5.9-2-11.9-3.9c-5.8-2.1-11.5-4.2-11.5-4.2c-0.5-0.2-0.8-0.6-0.9-1.1c-0.1-0.5,0.1-1,0.4-1.3 l5.7-4.3c0.3-0.2,0.8-0.3,1.2-0.1c0,0,6.4,2.2,12.7,4.3c6.5,2.1,12.8,3.6,12.8,3.6l1.4-1.2c0,0-5.9-1.6-11.7-3.1 c-5.9-2-11.8-3.9-11.8-3.9c-0.5-0.2-0.9-0.6-1-1.1s0-1,0.4-1.3c0,0,5.7-4.2,5.6-4.4c0.3-0.3,0.7-0.4,1.1-0.2 c0,0,6.3,1.8,12.6,3.5c6.5,1.6,12.9,3.2,12.9,3.2l1.4-1.2c0,0-6-1.4-12-2.9c-5.9-1.6-11.7-3.2-11.7-3.2c-0.5-0.1-0.9-0.5-1-1 c-0.2-0.5,0-1,0.3-1.3l5.3-4.8c0.3-0.3,0.7-0.4,1.1-0.2c0,0,6.4,1.6,12.9,3.2c6.6,1.5,13.2,2.9,13.2,2.9s1.4-1.2,1.3-1.3 c0,0-6.1-1.3-12.3-2.6c-6-1.5-12-2.9-12-2.9c-0.5-0.1-0.9-0.5-1.1-1c-0.2-0.5,0-1,0.3-1.3l5.3-4.8c0.3-0.3,0.7-0.4,1.2-0.3 c0,0,6.6,1.7,12.9,2.7c6.5,1.1,13,2.1,13,2.1l1.2-1.4c0,0-6.1-0.9-12.1-1.9s-11.9-2.3-11.9-2.3c-0.5-0.1-0.9-0.5-1.1-1 c-0.2-0.5-0.1-1,0.3-1.3l4.8-5.3c0.3-0.3,0.7-0.4,1.1-0.4c0,0,6.5,1.1,13,2.2c6.7,0.9,13.3,1.8,13.3,1.8s2.1-2.3,5.6-6.2 c3.2-4.3,7.8-10.4,13.2-17.7c5.8-7.1,11.1-16.4,17.1-26.2c6.4-9.5,11.2-20.8,16.6-31.7l4-8.2c1-2.9,2.1-5.7,3.1-8.5 c2.1-5.6,4.1-11.2,6.1-16.6c4-10.7,5.8-21.3,8.4-30.1c2.6-8.8,3.3-16.4,4.2-21.7c0.8-5.3,1.3-8.3,1.3-8.3s-2.9-3.7-5.9-7.4 c-2.9-3.6-6-7.1-6-7.1c-0.2-0.3-0.4-0.6-0.4-0.9c0-0.2,0-0.3,0.1-0.4c0,0,4.4-9.3,8.9-18.6c2.2-4.8,4.6-9.6,6-13.3 c1.3-3.7,2.2-6.2,2.2-6.2c0.2-0.6,0.9-1,1.5-0.9c0.4,0.1,0.7,0.3,0.9,0.7V432c0,0,1.1,2.6,2.9,6.5c1.6,3.9,3.2,9.2,5,14.5 c3.5,11,7,22,7,22s-4,3.2-8.3,6.2c-4.2,2.9-8.4,5.9-8.4,5.9h0.3c0,0-0.5,3.1-1.3,8.5c-0.9,5.4-1.6,13.2-4.3,22.2 c-4.2,18.2-11.5,42.2-22.1,64.9c-5.5,11.2-10.5,22.7-17,32.4c-6,10-11.6,19.4-17.5,26.7c-5.6,7.5-10.2,13.8-13.6,18.1 c-3.7,4-5.8,6.4-5.8,6.4s1.4,6.1,2.8,12.3c1.2,6.3,2.5,12.6,2.5,12.6c0.1,0.5-0.1,0.9-0.4,1.3l-5.6,6.1c-0.4,0.4-1,0.5-1.5,0.3 s-0.9-0.6-0.9-1.1c0,0-0.9-5.9-2-11.7c-1.2-5.7-2.3-11.5-2.3-11.5l-1.3,1.4c0,0,1.2,6.3,2.5,12.5c1.3,6.4,1.9,12.6,1.9,12.6 c0.1,0.4-0.1,0.9-0.5,1.2l-6.1,5.6c-0.4,0.4-1,0.5-1.5,0.3s-0.8-0.6-0.9-1.2c0,0-0.7-5.8-1.4-11.5c-0.8-5.6-1.6-11.3-1.6-11.3 l-1.4,1.3c0,0,0.9,6.2,1.7,12.3c0.7,6.3,1.4,12.6,1.4,12.6c0,0.4-0.1,0.9-0.5,1.2l-6.1,5.5c-0.4,0.4-1,0.5-1.4,0.3 c-0.5-0.2-0.8-0.6-0.9-1.2c0,0-0.6-5.9-1.1-11.8c-0.7-5.8-1.4-11.5-1.4-11.5l-1.4,1.3c0,0,0.7,6.3,1.4,12.6 c0.6,6.4,1.1,12.9,1.1,12.9c0,0.5-0.2,0.9-0.5,1.2c0.1,0.2-6.5,5.1-6.5,5.1c-0.4,0.3-1,0.4-1.5,0.2s-0.8-0.7-0.8-1.2 c0,0-0.2-5.8-0.4-11.5c-0.5-5.9-1.1-11.7-1.1-11.7l-1.4,1.3c0,0,0.2,1.6,0.4,4c0.3,2.4,0.5,5.6,0.6,8.7 c0.2,6.3,0.4,12.6,0.4,12.6c0,0.5-0.2,0.9-0.6,1.2l-6.6,4.9c-0.4,0.3-1,0.4-1.5,0.1c-0.5-0.2-0.8-0.7-0.8-1.2 c0,0-0.1-5.9-0.1-11.7c-0.2-5.7-0.4-11.5-0.4-11.5l-11.6,8.6L634.2,713.5z M662.5,663.2c0,0,5.6,1,11.3,2 c5.8,0.9,11.5,1.7,11.5,1.7l2.9-3.2c0,0-5.8-0.8-11.6-1.6c-5.7-1-11.4-1.9-11.4-1.9L662.5,663.2z M653.8,671.5 c0,0,5.7,1.4,11.5,2.7c5.9,1.4,11.5,2.2,11.5,2.2l2.9-3.2c0,0-5.7-1-11.4-1.9c-5.7-1.1-11.5-2.6-11.5-2.6L653.8,671.5z M644.9,679.5c0,0,5.6,1.5,11.2,2.9c5.7,1.3,11.5,2.7,11.5,2.7l3.2-2.9c0,0-5.8-1.3-11.6-2.6c-5.6-1.4-11.3-2.9-11.3-2.9 L644.9,679.5z M635.8,687.4c0,0,5.6,2,11.1,3.4c5.6,1.5,11.2,2.9,11.2,2.9l3.2-2.9c0,0-5.6-1.4-11.3-2.9c-5.5-1.5-11-3.1-11-3.1 C639.1,685,635.8,687.4,635.8,687.4z M626.1,694.6c0,0,5.5,1.9,11,3.9c5.7,1.8,11.3,3.7,11.3,3.7l3.4-2.7c0,0-1.4-0.4-3.5-1 c-2.1-0.7-5-1.6-7.8-2.5c-5.6-1.9-11.1-3.8-11.1-3.8L626.1,694.6z M655.4,704.8c0.1,0.1-3.5,2.7-3.5,2.7s0.2,5.5,0.5,11.1 c0.1,5.6,0.2,11.3,0.2,11.3l3.7-2.8c0,0-0.2-5.6-0.3-11.2C655.9,710.4,655.4,704.8,655.4,704.8z M665,696.1l-3.3,3 c0,0,0.6,5.7,1.1,11.3c0.6,5.8,0.7,11.3,0.7,11.3s3.7-2.8,3.6-2.9c0,0-0.5-5.7-1-11.5C665.6,701.7,665,696.1,665,696.1z M674.6,687.3l-3.3,3c0,0,0.7,5.6,1.4,11.1c0.6,5.7,1.2,11.3,1.2,11.3l3.5-3.1c0,0-0.6-5.6-1.2-11.3 C675.4,692.9,674.6,687.3,674.6,687.3z M683.8,678.1l-3,3.3c0,0,1.2,5.6,1.8,11.1c0.7,5.6,1.4,11.1,1.4,11.1l3.4-3.1 c0,0-0.6-5.5-1.5-11.1C684.9,683.7,683.8,678.1,683.8,678.1z M692.5,668.5l-3,3.3c0,0,1.2,5.5,2.3,11.1c1,5.7,2.1,11.3,2.1,11.3 l3.1-3.4c0,0-1.1-5.6-2.2-11.2C693.8,674,692.5,668.5,692.5,668.5z M772.3,483.9c1.3,0.1,3.4-43.9,3.4-43.9s-3.6,7.8-7.2,15.7 c-3.6,7.5-7.2,15.1-7.2,15.1s3,3.2,5.6,6.5C769.6,480.5,772.3,483.9,772.3,483.9z"/></g><g><path d="M236.1,713.5c0,0,12.1,9.2,12.4,8.9c0,0-0.3-6,0-12.4c0.3-6.2,0.5-12.4,0.5-12.4c0-0.5,0.3-1,0.8-1.2 c0.4-0.3,1-0.2,1.3,0l5.7,4.3c0.3,0.2,0.5,0.6,0.5,1.1c0,0-0.1,6.5,0,13c0.2,6.6,0.5,13.2,0.5,13.2l1.6,1c0,0-0.3-6.1-0.5-12.3 c-0.1-6-0.2-12.1-0.2-12.1c0-0.5,0.3-1,0.7-1.3c0.4-0.3,1-0.3,1.4-0.1l6.1,3.7c0.3,0.2,0.5,0.6,0.6,1c0,0,0.2,6.6,0.4,13.2 c0.4,6.7,0.9,13.5,0.9,13.5l1.6,1c0,0-0.4-6.2-0.9-12.5c-0.2-6.1-0.5-12.3-0.5-12.3c0-0.5,0.2-1,0.7-1.3c0.4-0.3,0.9-0.3,1.3-0.1 l6.1,3.7c0.3,0.2,0.6,0.6,0.6,1c0,0,0.4,6.7,0.8,13.4c0.6,6.5,1.5,13.1,1.5,13.1l1.7,0.8c0,0-0.8-6-1.5-12.1 c-0.7-6-0.9-12.3-0.9-12.3c0-0.5,0.2-1,0.6-1.3s0.9-0.3,1.3-0.1c-0.1,0.1,6.2,3.6,6.3,3.4c0.4,0.2,0.6,0.5,0.6,0.9 c0,0,0.7,6.5,1.5,13c1,6.6,1.9,13.2,1.9,13.2l1.7,0.8c0,0-0.9-6.1-1.9-12.3c-0.7-6-1.5-12.1-1.5-12.1c-0.1-0.5,0.2-1,0.6-1.3 s0.9-0.4,1.3-0.2l6.4,3.1c0.4,0.2,0.6,0.5,0.7,1c0,0,0.9,6.6,1.9,13.2c1.2,6.7,2.3,13.4,2.3,13.4s11.5,4.2,28.6,10.5 c8.7,2.8,19.2,5.1,30.2,8.1c11.1,2.7,23.3,3.8,35.3,5.9c12.1,1.3,24.4,1.4,35.8,2.1c11.4-0.1,22.1-1,31.2-1.4 c9.2-0.3,16.6-2.2,21.9-2.8c5.3-0.8,8.3-1.3,8.3-1.3s2.6-3.9,5.2-7.8c1.3-1.9,2.5-3.9,3.4-5.5s1.5-2.6,1.5-2.6 c0.2-0.3,0.5-0.5,0.8-0.6c0.1,0,0.3,0,0.5,0c0,0,10.2,1.5,20.5,2.9c5.3,0.8,10.6,1.4,14.4,1.4c4,0.1,6.6,0.2,6.6,0.2 c0.6,0,1.2,0.5,1.3,1.2c0.1,0.4-0.1,0.8-0.3,1.1h0.1c0,0-2.1,1.9-5.3,4.6c-3.1,3-7.6,6.2-12.2,9.5c-9.4,6.6-18.8,13.2-18.8,13.2 s-1.1-0.7-2.6-1.7c-1.6-1-3.7-2.4-5.7-4c-4.1-3.1-8.2-6.2-8.2-6.2l0.1,0.3c0,0-3.1,0.5-8.5,1.3c-5.4,0.6-13.1,2.6-22.4,2.8 c-9.3,0.4-20.3,1.3-31.9,1.4c-11.7-0.8-24.2-0.8-36.6-2.2c-12.3-2.1-24.8-3.2-36.1-6.1c-11.3-3.1-22-5.3-30.9-8.3 c-8.8-3.2-16.1-5.9-21.3-7.8c-5.1-1.8-8-3.1-8-3.1s-5.4,3.1-10.7,6.2c-5.6,3-11.1,6.1-11.1,6.1c-0.4,0.2-0.9,0.2-1.3,0l-7.4-3.6 c-0.5-0.2-0.8-0.7-0.8-1.2s0.3-1,0.8-1.2c0,0,5.2-2.7,10.5-5.5c5.1-2.8,10.1-5.6,10.1-5.6l-1.7-0.8c0,0-5.5,3-11.1,6.1 c-5.7,2.9-11.5,5.9-11.5,5.9c-0.4,0.2-0.9,0.2-1.3,0c-0.1,0.2-7.3-3.8-7.2-4c-0.5-0.3-0.7-0.8-0.7-1.3s0.3-1,0.8-1.2 c0,0,5.3-2.2,10.5-4.8c5.2-2.7,10.5-5.5,10.5-5.5l-1.7-0.8c0,0-5.7,3.1-11.4,5.8c-5.7,2.5-11.5,5.1-11.5,5.1 c-0.4,0.2-0.9,0.1-1.3-0.1l-7.1-4.3c-0.5-0.3-0.7-0.8-0.7-1.3s0.4-1,0.9-1.2c0,0,5.4-2.3,10.8-4.5c5.2-2.4,10.5-4.7,10.5-4.7 l-1.6-1c0,0-5.7,2.5-11.4,5.1c-5.9,2.4-11.8,4.9-11.8,4.9c-0.4,0.2-0.9,0.1-1.3-0.1l-7-4.3c-0.5-0.3-0.7-0.8-0.7-1.3 s0.4-1,0.9-1.2c0,0,5.5-2.2,11.1-4.3c5.4-2.3,10.8-4.5,10.8-4.5l-1.6-1c0,0-5.9,2.4-11.8,4.9c-6,2.4-12.1,4.6-12.1,4.6 c-0.4,0.1-0.9,0.1-1.3-0.2l-6.6-4.9c-0.4-0.3-0.7-0.9-0.6-1.4c0.1-0.5,0.4-1,0.9-1.1c0,0,5.5-1.8,11-3.6c5.4-1.8,10.8-4,10.8-4 c-0.2,0.4-11.7-8.5-11.7-8.5L236.1,713.5z M292.8,724.7c0,0,0.7,5.7,1.5,11.5c0.9,5.8,1.8,11.7,1.8,11.7l3.9,1.9 c0,0-1-5.9-2-11.7c-0.8-5.8-1.6-11.5-1.6-11.5L292.8,724.7z M282,719.4c0,0,0.4,5.8,1.1,11.4c0.8,5.7,1.5,11.5,1.5,11.5l3.9,1.9 c0,0-0.8-5.8-1.6-11.6c-0.6-5.7-1.3-11.4-1.3-11.4S281.9,719.5,282,719.4z M271.7,713.1c0,0,0.3,5.8,0.6,11.7 c0.4,5.9,0.9,11.9,0.9,11.9c-0.1,0.1,3.9,2,3.9,2s-0.8-5.6-1.2-11.6c-0.3-5.9-0.7-11.8-0.7-11.8L271.7,713.1z M261.4,706.9 c0,0,0.1,5.7,0.2,11.5c0.3,5.8,0.6,11.7,0.6,11.7l3.7,2.3c0,0-0.3-5.9-0.7-11.8c-0.2-5.8-0.3-11.6-0.3-11.6L261.4,706.9z M251.5,700.1c0,0-0.2,5.9-0.4,11.8c0.1,5.8,0.2,11.5,0.2,11.5l3.7,2.3c0,0-0.2-5.8-0.4-11.6c-0.2-5.6,0.1-11.6,0.1-11.6 L251.5,700.1z M251,730.7l-3.8-2.3c0,0-5.3,2.2-10.6,4.2c-5.3,1.8-10.6,3.5-10.6,3.5l3.7,2.8c0,0,5.3-1.7,10.7-3.9 C245.7,732.9,251,730.7,251,730.7z M262.1,737.5l-3.8-2.3c0,0-5.2,2.2-10.4,4.4c-5.3,2.1-10.6,4.3-10.6,4.3l4,2.4 c0,0,5.3-2.2,10.5-4.3C257,739.7,262.1,737.5,262.1,737.5z M273.4,744c0,0-4-2-3.9-2.1c0,0-5,2.3-10.1,4.6 c-5.2,2.2-10.4,4.4-10.4,4.4l4,2.4c0,0,5.1-2.3,10.3-4.5C268.3,746.7,273.4,744,273.4,744z M285.1,749.6l-4-1.9 c0,0-5,2.7-10.1,5.3c-5.1,2.7-10.3,5.1-10.3,5.1c-0.1,0.1,4.1,2.2,4.1,2.2s5.1-2.6,10.3-5.2C280.1,752.3,285.1,749.6,285.1,749.6 z M296.8,755.3l-4-1.9c0,0-4.9,2.7-9.7,5.5c-5,2.7-10.1,5.3-10.1,5.3l4.2,2c0,0,5-2.7,9.9-5.4C292,758,296.8,755.3,296.8,755.3z M497.2,773.9c0,0,2.7-0.4,6.8-1c4-1,9.4-2.4,14.7-3.7s10.7-2.7,14.7-3.7c4.1-0.9,6.6-2,6.6-2s-2.1,0-5.3-0.3 c-3.2-0.4-7.5-1-11.7-1.5c-8.3-1.2-16.6-2.3-16.6-2.3s-2.2,3.8-4.4,7.6C499.5,770.4,497.2,773.9,497.2,773.9z"/></g><g><path d="M112.9,334.8c-0.4-0.1-4.2,14.6-4.2,14.6s5.8-2,11.6-3.9c5.6-1.9,11.7-3.4,11.7-3.4c0.5-0.1,1,0,1.4,0.4 c0.4,0.3,0.5,0.8,0.3,1.3c-0.2-0.1-1.9,6.9-1.9,6.9c-0.1,0.4-0.4,0.7-0.8,0.8c0,0-6.2,2-12.5,4.1c-6.3,2.3-12.6,4.5-12.6,4.5 l-0.5,1.8c0,0,5.8-2.1,11.7-4.3c5.8-1.9,11.6-3.9,11.6-3.9c0.5-0.2,1,0,1.4,0.3s0.6,0.8,0.5,1.3l-1.8,6.9 c-0.1,0.4-0.4,0.7-0.8,0.8c0,0-6.3,2.2-12.6,4.5c-3.2,1.2-6.3,2.4-8.7,3.4c-2.4,0.9-3.9,1.6-3.9,1.6l-0.3,1.8 c0,0,5.5-2.5,11.5-4.7c5.8-2.1,11.7-4.2,11.7-4.2c0.5-0.2,1-0.1,1.4,0.2c0.4,0.3,0.6,0.8,0.5,1.2l-1.8,6.9 c-0.1,0.4-0.4,0.7-0.8,0.9c0,0-1.5,0.6-3.8,1.5c-2.2,1-5.2,2.2-8.2,3.5c-6,2.8-12,5.5-12,5.5l-0.3,1.8c0,0,5.6-2.6,11.1-5.2 c5.5-2.4,11.1-4.8,11.1-4.8c0.5-0.2,1-0.1,1.4,0.2c0.4,0.3,0.7,0.8,0.6,1.2l-1.1,7.1c-0.1,0.4-0.3,0.7-0.7,0.9c0,0-6,2.7-12,5.4 c-6,3-12.1,5.9-12.1,5.9l-0.3,1.8c0,0,5.6-2.8,11.2-5.6c5.6-2.6,11.1-5.1,11.1-5.1c0.5-0.2,1-0.2,1.5,0.1 c0.4,0.3,0.7,0.8,0.6,1.2l-1.1,7c-0.1,0.4-0.3,0.7-0.7,0.9c0,0-6,2.9-12.1,5.8c-6.1,3-11.6,6.4-11.6,6.4s-0.6,12.2-1.4,30.5 c0.5,9.1,1,19.8,1.6,31.2c1.3,11.4,3.5,23.4,5.2,35.5c3.1,11.8,5.9,23.7,9.1,34.7c3.9,10.7,7.6,20.8,10.8,29.4 c7.9,16.5,13.2,27.5,13.2,27.5s4.5,1.4,9.3,2.4c4.7,1,9.4,2.1,9.4,2.1c0.4,0.1,0.6,0.3,0.8,0.6c0.1,0.1,0.1,0.3,0.2,0.4 c0,0,1.6,10.3,3.2,20.6c2.6,10.2,5.3,20.3,5.3,20.3c0.2,0.6-0.1,1.3-0.7,1.6c-0.4,0.2-0.8,0.2-1.1,0l0.1,0.1 c0,0-9.5-5.8-19.1-12.1c-9-7-18-14-18-14s1.4-4.9,2.8-9.7c0.7-2.4,1.5-4.8,2-6.5c0.7-1.8,1.1-3,1.1-3l-0.3,0.1 c0,0-5.4-11.2-13.5-28.1c-3.2-8.8-7-19.1-11-30c-3.2-11.2-6.2-23.4-9.2-35.5c-1.8-12.4-4.1-24.7-5.2-36.3 c-0.6-11.7-1.1-22.6-1.6-31.9c0.9-18.7,1.5-31.2,1.5-31.2s-1.2-1-3.1-2.6c-1.9-1.5-4.3-3.6-6.5-5.7c-4.5-4.3-9.1-8.7-9.1-8.7 c-0.3-0.3-0.5-0.8-0.4-1.2l1.2-8.2c0.1-0.5,0.4-1,0.9-1.1c0.5-0.2,1,0,1.4,0.4c0,0,4.2,4.1,8.3,8.2c4.2,3.9,8.4,7.9,8.4,7.9 l0.3-1.9c0,0-4.5-4.3-9.1-8.6c-4.5-4.5-9-9.1-9-9.1c-0.3-0.3-0.5-0.8-0.4-1.2l1.3-8.2c0.1-0.5,0.4-1,0.9-1.1c0.5-0.2,1,0,1.4,0.4 c0,0,4.1,4.3,8.2,8.6c4.2,4.1,8.3,8.2,8.3,8.2l0.3-1.9c0,0-4.5-4.5-9-9c-4.5-4.6-8.8-9.4-8.8-9.4c-0.3-0.3-0.4-0.8-0.3-1.2l2-8 c0.1-0.5,0.5-0.9,1.1-1.1c0.5-0.1,1,0,1.4,0.4c0,0,3.8,4.4,7.5,8.8c1.9,2.1,3.8,4.3,5.2,5.8C96,371,97,372,97,372l0.3-1.9 c0,0-4.1-4.6-8.3-9.3c-4.1-4.8-8.1-9.7-8.1-9.7c-0.3-0.4-0.4-0.8-0.3-1.3l2.1-8c0.1-0.5,0.5-0.9,1.1-1c0.5-0.1,1,0.1,1.4,0.5 c0,0,3.7,4.6,7.4,9.1c3.8,4.4,7.5,8.8,7.5,8.8l0.5-1.8c0,0-4.1-4.8-8.1-9.6c-4-5-8-10-8-10c-0.3-0.4-0.4-0.8-0.3-1.3 c0,0,2.1-8,2.3-7.9c0.2-0.5,0.6-0.9,1.2-1c0.5-0.1,1,0.1,1.4,0.5c0,0,3.2,4.7,7,9.4c3.7,4.6,7.4,9.1,7.4,9.1s0.9-3.5,1.8-7 c0.7-3.5,2.2-6.9,2.2-6.9L112.9,334.8z M120,392.2c0,0-5.3,2.5-10.6,5c-5.3,2.7-10.6,5.4-10.6,5.4c-0.1,0-0.6,4.3-0.5,4.3 c0,0,1.3-0.7,3.1-1.8c2-1,4.7-2.4,7.3-3.7c5.3-2.5,10.6-5.1,10.6-5.1L120,392.2z M121.8,380.3c0,0-5.3,2.3-10.5,4.6 c-5.3,2.5-10.6,5-10.6,5l-0.7,4.3c0,0,5.3-2.6,10.6-5.1c5.3-2.4,10.5-4.7,10.5-4.7L121.8,380.3z M124.3,368.5 c0,0-5.5,2.1-11.1,4.1c-5.4,2.2-10.6,4.6-10.6,4.6l-0.7,4.3c0,0,5.3-2.4,10.5-4.8c5.1-2.3,10.7-4.3,10.7-4.3L124.3,368.5z M127.3,356.9c0,0-5.5,1.9-11,3.8c-5.5,2.1-11.1,4.1-11.1,4.1l-1.1,4.2c0,0,5.6-2.1,11.1-4.3c5.5-1.9,11-3.9,11-3.9L127.3,356.9z M130.3,345.2c0,0-5.4,1.7-10.9,3.4c-5.5,1.9-11,3.8-11,3.8l-1.1,4.2c0,0,5.5-2,11-3.9c5.5-1.8,10.9-3.5,10.9-3.5L130.3,345.2z M101.3,354.3l1.1-4.3c0,0-3.6-4.4-7.2-8.8c-3.6-4.5-7.1-9.1-7.1-9.1l-1.2,4.5c0,0,3.6,4.5,7.2,9 C97.7,350,101.3,354.3,101.3,354.3z M98.1,366.9l1.1-4.3c0,0-3.7-4.2-7.3-8.4c-3.6-4.4-7.2-8.8-7.2-8.8l-1.2,4.5 c0,0,3.6,4.3,7.3,8.7C94.4,362.8,98.1,366.9,98.1,366.9z M95.8,379.7l0.7-4.4c0,0-4.1-4-7.9-8.2c-3.7-4.2-7.3-8.4-7.3-8.4 l-1.2,4.5c0,0,3.5,4.2,7.7,8.4C91.8,375.7,95.8,379.7,95.8,379.7z M93.9,392.6l0.7-4.4c0,0-4-3.9-8.1-7.9c-4-4.1-8-8.2-8-8.2 l-0.7,4.6c0,0,4,4.1,8,8.1C89.8,388.7,93.9,392.6,93.9,392.6z M92,405.5c-0.1,0,0.5-4.4,0.5-4.4s-4.1-3.8-8.1-7.5 c-4-3.9-8.1-7.9-8.1-7.9l-0.7,4.6c0,0,4.1,3.9,8.1,7.8C87.8,401.8,92,405.5,92,405.5z M136,601.9c0,0,5.7,9.4,11.4,18.9 c2.9,4.7,5.5,9.6,8.2,12.8c2.5,3.3,4.1,5.5,4.1,5.5s-0.5-2.1-1.4-5.2c-0.8-3.1-1.9-7.1-2.5-11.4c-1.3-8.3-2.6-16.7-2.6-16.7 s-4.3-0.9-8.5-1.9C140.4,602.9,136,601.9,136,601.9z"/></g><g><path d="M435.2,100.5l-15.2,0.8c0,0,3.6,4.9,7.3,9.9c3.4,4.9,6.9,9.9,6.9,9.9c0.3,0.4,0.3,1,0.1,1.5c-0.2,0.5-0.6,0.8-1.1,0.8 l-7.1,0.4c-0.4,0-0.8-0.2-1-0.5c0,0-3.9-5.3-7.7-10.7c-4.1-5.3-8.2-10.7-8.2-10.7l-1.8,0.1c0,0,3.8,4.9,7.7,9.9 c3.6,4.9,7.2,9.9,7.2,9.9c0.3,0.4,0.4,1,0.2,1.5c-0.2,0.5-0.6,0.8-1.1,0.8l-7.1,0.4c-0.4,0-0.8-0.2-1-0.5c0,0-4.1-5.3-8.1-10.7 c-4.2-5.5-8.6-10.2-8.6-10.2l-1.8,0.3c0,0,4.1,4.5,8,9.2c3.8,4.9,7.6,9.9,7.6,9.9c0.3,0.4,0.4,1,0.2,1.5c-0.2,0.5-0.6,0.8-1,0.8 c0,0-7.1,0.3-7.1,0.4c-0.4,0.1-0.8-0.1-1.1-0.4c0,0-4.2-4.9-8.5-9.9c-4.5-4.9-9-9.8-9-9.8l-1.8,0.3c0,0,4.2,4.5,8.4,9.1 c4,4.6,7.9,9.1,7.9,9.1c0.3,0.4,0.4,0.9,0.3,1.4c-0.2,0.5-0.5,0.9-1,0.9l-7,1.1c-0.4,0.1-0.8-0.1-1.1-0.4c0,0-4.4-4.9-8.9-9.8 c-4.7-4.9-9.4-9.8-9.4-9.8l-1.8,0.3c0,0,4.4,4.5,8.7,9c4.2,4.5,8.3,9.1,8.3,9.1c0.3,0.4,0.5,0.9,0.3,1.4c-0.1,0.5-0.5,0.9-1,0.9 l-7,1.1c-0.4,0.1-0.8-0.1-1.1-0.4c0,0-4.5-5-9.3-9.7c-4.8-4.5-9.6-8.9-9.6-8.9s-3,0.8-8.1,2.1c-5.1,1.6-12.7,2.7-21.3,6 c-8.5,3.3-18.8,6.5-29.2,11.1c-10.2,5.2-21.6,9.7-32,16.1c-21.2,12.1-40.9,26.6-54.6,38.7c-6.8,6.2-12.4,11.3-16.4,14.9 c-3.9,3.7-5.8,6.1-5.8,6.1s0.3,4.8,0.6,9.6c0.4,4.7,0.8,9.4,0.8,9.4c0,0.4-0.1,0.7-0.3,0.9c-0.1,0.1-0.2,0.2-0.4,0.3 c0,0-2.3,1.1-5.9,2.8c-3.7,1.6-8.1,4.1-12.5,6.8c-9.1,5.5-18.1,11-18.1,11c-0.6,0.3-1.3,0.3-1.8-0.2c-0.3-0.3-0.4-0.7-0.3-1.1 l-0.1,0.1c0,0,3-10.8,6-21.6c1.5-5.6,3.3-11,5-14.9c1.6-4,2.6-6.7,2.6-6.7s5.1-0.1,10.2-0.2c5,0,10,0,10,0l-0.2-0.2 c0,0,2-2.4,5.9-6.2c4-3.7,9.8-8.9,16.7-15.2c14-12.4,34.3-27.2,55.9-39.6c10.7-6.5,22.3-11.1,32.8-16.4 c10.8-4.6,21.2-7.9,29.9-11.3c8.8-3.2,16.5-4.5,21.8-6.1c5.3-1.4,8.3-2.1,8.3-2.1s2.5-5.9,4.9-11.9c2.6-5.7,5.5-11.3,5.5-11.3 c0.2-0.4,0.6-0.7,1-0.8l8.2-1.3c0.5-0.1,1.1,0.1,1.4,0.6c0.3,0.4,0.4,1,0.1,1.5c0,0-2.6,5.2-5.3,10.4c-2.5,5.2-4.9,10.3-4.9,10.3 l1.9-0.3c0,0,2.7-5.6,5.4-11.2c2.9-5.6,5.9-11.3,5.9-11.3c0.2-0.4,0.6-0.7,1.1-0.8l8.2-1.2c0.5-0.1,1.1,0.1,1.4,0.6 c0.3,0.4,0.3,1,0.1,1.5c0,0-2.8,5.2-5.6,10.4c-2.6,5.2-5.3,10.4-5.3,10.4l1.9-0.3c0,0,2.9-5.6,5.8-11.3 c3.1-5.7,6.2-11.3,6.2-11.3c0.2-0.4,0.6-0.7,1.1-0.8c0,0,2.1-0.2,4.1-0.3c2.1-0.1,4.1-0.2,4.1-0.2c0.5,0,1.1,0.2,1.3,0.7 c0.3,0.5,0.3,1,0,1.5c0,0-3,4.9-6.1,9.8c-2.9,4.9-5.7,10.3-5.7,10.3l1.9-0.3c0,0,3-5.8,6.2-10.9c3.3-5.3,6.7-10.6,6.7-10.6 c0.2-0.4,0.7-0.6,1.1-0.6l8.2-0.4c0.5,0,1,0.2,1.3,0.7s0.2,1-0.1,1.5c0,0-3.2,4.9-6.4,9.8c-3,4.9-6.1,9.8-6.1,9.8l1.9-0.1 c0,0,3.3-5.3,6.7-10.6c3.5-5.3,7.1-10.7,7.1-10.7c0.3-0.4,0.7-0.6,1.1-0.6l8.2-0.4c0.5,0,1,0.2,1.3,0.7c0.2,0.5,0.2,1-0.1,1.5 c0,0-3.4,4.9-6.8,9.8c-3.2,4.9-6.4,9.8-6.4,9.8l14.4-0.7L435.2,100.5L435.2,100.5z M382.7,125.1c0,0-4-4.3-8-8.6 c-4.1-4.3-8.4-8.5-8.4-8.5l-4.2,1.1c0,0,4.2,3.7,8.4,8c4.1,4.3,8.1,8.6,8.1,8.6L382.7,125.1z M394.6,123.3c0,0-3.8-4.3-7.6-8.6 c-4-4.3-8-8.6-8-8.6l-4.3,0.7c0,0,4.1,4.3,8.1,8.6c3.9,4.3,7.8,8.6,7.8,8.6L394.6,123.3z M406.6,121.9c0,0-0.9-1.2-2.3-2.9 c-1.4-1.8-3.2-4.1-5.1-6.2c-3.8-4.3-7.6-8.6-7.6-8.6l-4.3,0.7c0,0,3.9,4.3,7.8,8.6c3.7,4.3,7.4,8.7,7.4,8.7L406.6,121.9z M418.6,121.3c0,0-3.5-4.7-7-9.4c-3.7-4.7-7.4-9.3-7.4-9.3s-4.4,0.2-4.3,0.3c0,0,3.8,4.6,7.5,9.3c3.5,4.7,7.1,9.4,7.1,9.4 L418.6,121.3z M430.6,120.7c0,0-3.3-4.7-6.6-9.4c-3.5-4.7-7-9.4-7-9.4l-4.3,0.2c0,0,3.6,4.7,7.1,9.4c3.4,4.7,6.7,9.4,6.7,9.4 L430.6,120.7z M413,95.7l4.4-0.2c0,0,3.1-4.7,6.1-9.5c3.2-4.8,6.5-9.5,6.5-9.5l-4.7,0.2c0,0-3.2,4.8-6.3,9.5 C416,91,413,95.7,413,95.7z M400,96.4l4.4-0.2c0,0,2.9-4.7,5.8-9.5c3.1-4.7,6.1-9.5,6.1-9.5l-4.7,0.2c0,0-3,4.7-6,9.5 C402.8,91.7,400,96.4,400,96.4z M387.2,98.3l4.4-0.7c0,0,2.7-5,5.4-10.1c2.8-5.1,5.8-9.7,5.8-9.7l-4.6,0.3c0,0-2.8,5.1-5.6,10.1 C389.8,93.3,387.2,98.3,387.2,98.3z M374.3,100.3l4.4-0.7c0,0,2.5-5,5-10c2.7-5,5.4-10.1,5.4-10.1l-4.6,0.7c0,0-2.6,5-5.3,10.1 C376.8,95.3,374.3,100.3,374.3,100.3z M361.5,102.7l4.3-1.1c0,0,2.3-5,4.7-10c2.5-5,5-10.1,5-10.1l-4.6,0.7c0,0-2.5,5-4.9,10 c-1.2,2.4-2.3,5.1-3.1,7.1C362.1,101.4,361.5,102.7,361.5,102.7z M188.5,205.4c0,0-7.5,8.1-14.9,16.3 c-6.9,8.6-13.4,17.5-13.4,17.5s7.3-4.4,14.6-8.8c3.5-2.2,7.4-4,10.3-5.4c2.9-1.4,4.8-2.3,4.8-2.3s-0.4-4.3-0.7-8.6 C188.8,209.8,188.5,205.4,188.5,205.4z"/></g></g><g><g><path d="M734.8,512.3l3.1-13c0,0-1.1-1.5-2.9-3.8c-1.9-2.2-4.4-5.2-6.9-8.2c-5.1-5.8-10.2-11.2-10.2-11.2s0.6-4,1.5-11 c0.3-7.1,0.6-17.1,1.1-29.2c-0.6-24.2-4.7-56.5-15.1-87.1c-2.9-7.5-5.2-15.3-8.5-22.5c-3.4-7.2-6.8-14.2-10-21.1 c-7.7-13-14.6-25.3-22.2-34.8c-3.7-4.8-6.7-9.5-10-13.1c-3.3-3.7-6.1-6.8-8.5-9.5c-4.7-5.2-7.4-8.2-7.4-8.2l13.1-12.9 c0,0-2.8-1.1-7.2-2.3c-4.3-1.2-10-2.8-15.8-4.4c-5.6-1.6-11.1-3-15.5-3.6c-4.3-0.7-7.1-1.2-7.1-1.2s1.2,2.6,3,6.4 c1.9,3.7,3.8,9.1,5.5,14.4c1.7,5.2,3.4,10.4,4.7,14.3c1.3,3.8,1.9,6.4,1.9,6.4l13.1-12.9c0,0,2.6,2.9,7.3,8.1 c2.3,2.6,5.1,5.7,8.3,9.3c3.2,3.6,6.2,8.2,9.8,12.9c7.5,9.3,14.2,21.4,21.8,34.1c3.2,6.7,6.5,13.6,9.8,20.7 c3.2,7.1,5.5,14.7,8.3,22.1c10.2,30,14.1,61.7,14.7,85.4c-0.4,11.8-0.7,21.7-1.2,28.6c-1,6.9-1.5,10.8-1.5,10.8s-6.4,3.7-12.7,7 c-3.2,1.6-6.3,3.2-8.7,4.4c-2.5,1.1-4.1,1.8-4.1,1.8l-2.6,10.8c0,0,7.6-3,15.3-6.5c3.9-1.7,7.7-3.6,10.3-5.1 c2.7-1.5,4.6-2.5,4.6-2.5s1.4,1.6,3.5,3.9c2.2,2.4,4.9,5.6,7.4,8.9C729.8,505.2,734.8,512.3,734.8,512.3z"/><path d="M728.4,534.8c0,0,1.1-3.2,2.2-6.3c1.1-3.2,1.7-6.5,1.7-6.5s-4.9-7.3-9.9-14.1c-5-6.8-10.2-13.1-10.2-13.1 s-7.8,3.8-15.4,7c-7.7,3.3-15.2,6.1-15.2,6.1s-0.5,2.7-1.4,5.4c-0.9,2.6-1.9,5.2-1.9,5.2s2-0.6,5-1.5s7.1-2.2,10.8-3.8 c7.6-3,15.3-6.5,15.3-6.5s5.1,6.6,10,13.7c2.6,3.6,4.7,7.1,6.3,9.8C727.4,532.9,728.4,534.8,728.4,534.8z"/><path d="M720.6,556.8l4.5-12.6c0,0-4.2-7.6-8.6-14.7c-4.2-7.1-9.3-13.9-9.3-13.9s-7.6,3.3-15.8,5.9c-8,2.7-15.9,4.8-15.9,4.8 l-3.7,10.5c0,0,7.7-1.9,15.6-4.3c7.9-2.3,16-5.2,16-5.2s4.5,6.9,8.7,14.3C716.5,549,720.6,556.8,720.6,556.8z"/></g><g><path d="M362.4,739.1l13,3.1c0,0,1.5-1.1,3.8-2.9c2.2-1.9,5.2-4.4,8.2-6.9c5.8-5.1,11.2-10.2,11.2-10.2s4,0.6,11,1.5 c7.1,0.3,17.1,0.6,29.2,1.1c24.2-0.6,56.5-4.7,87.1-15.1c7.5-2.9,15.3-5.2,22.5-8.5c7.2-3.4,14.2-6.8,21.1-10 c13-7.7,25.3-14.6,34.8-22.2c4.8-3.7,9.5-6.7,13.1-10c3.7-3.3,6.8-6.1,9.5-8.5c5.2-4.7,8.2-7.4,8.2-7.4l12.9,13.1 c0,0,1-2.8,2.3-7.2c1.2-4.3,2.8-10,4.4-15.8c1.6-5.6,3-11.1,3.6-15.5c0.7-4.3,1.2-7.1,1.2-7.1s-2.6,1.2-6.4,3 c-3.7,1.9-9.1,3.8-14.4,5.5c-5.2,1.7-10.4,3.4-14.3,4.7c-3.8,1.3-6.4,1.9-6.4,1.9l12.9,13.1c0,0-2.9,2.6-8.1,7.3 c-2.6,2.3-5.7,5.1-9.3,8.3s-8.2,6.2-12.9,9.8c-9.3,7.5-21.4,14.2-34.1,21.8c-6.7,3.2-13.6,6.5-20.7,9.8 c-7.1,3.2-14.7,5.5-22.1,8.3c-30,10.2-61.7,14.1-85.4,14.7c-11.8-0.4-21.7-0.7-28.6-1.2c-6.9-1-10.8-1.5-10.8-1.5 s-3.7-6.4-7-12.7c-1.6-3.2-3.2-6.3-4.4-8.7c-1.1-2.5-1.8-4.1-1.8-4.1l-10.8-2.6c0,0,3,7.6,6.5,15.3c1.7,3.9,3.6,7.7,5.1,10.3 c1.5,2.7,2.5,4.6,2.5,4.6s-1.6,1.4-3.9,3.5c-2.4,2.2-5.6,4.9-8.9,7.4C369.5,734.1,362.4,739.1,362.4,739.1z"/><path d="M339.9,732.8c0,0,3.2,1.1,6.3,2.2c3.2,1.1,6.5,1.7,6.5,1.7s7.3-4.9,14.1-9.9c6.8-5,13.1-10.2,13.1-10.2s-3.8-7.8-7-15.4 c-3.3-7.7-6.1-15.2-6.1-15.2s-2.7-0.5-5.4-1.4c-2.6-0.9-5.2-1.9-5.2-1.9s0.6,2,1.5,5s2.2,7.1,3.8,10.8c3,7.6,6.5,15.3,6.5,15.3 s-6.6,5.1-13.7,10c-3.6,2.6-7.1,4.7-9.8,6.3C341.7,731.7,339.9,732.8,339.9,732.8z"/><path d="M317.9,725l12.6,4.5c0,0,7.6-4.2,14.7-8.6c7.1-4.2,13.9-9.3,13.9-9.3s-3.3-7.6-5.9-15.8c-2.7-8-4.8-15.9-4.8-15.9 l-10.5-3.7c0,0,1.9,7.7,4.3,15.6c2.3,7.9,5.2,16,5.2,16s-6.9,4.5-14.3,8.7C325.7,720.9,317.9,725,317.9,725z"/></g><g><path d="M135.6,366.7l-3.1,13c0,0,1.1,1.5,2.9,3.8c1.9,2.2,4.4,5.2,6.9,8.2c5.1,5.8,10.2,11.2,10.2,11.2s-0.6,4-1.5,11 c-0.3,7.1-0.6,17.1-1.1,29.2c0.6,24.2,4.7,56.5,15.1,87.1c2.9,7.5,5.2,15.3,8.5,22.5c3.4,7.2,6.8,14.2,10,21.1 c7.7,13,14.6,25.3,22.2,34.8c3.7,4.8,6.7,9.5,10,13.1c3.3,3.7,6.1,6.8,8.5,9.5c4.7,5.2,7.4,8.2,7.4,8.2l-13.1,12.9 c0,0,2.8,1.1,7.2,2.3c4.3,1.2,10,2.8,15.8,4.4c5.6,1.6,11.1,3,15.5,3.6c4.3,0.7,7.1,1.2,7.1,1.2s-1.2-2.6-3-6.4 c-1.9-3.7-3.8-9.1-5.5-14.4c-1.7-5.2-3.4-10.4-4.7-14.3c-1.3-3.8-1.9-6.4-1.9-6.4l-13.2,12.9c0,0-2.6-2.9-7.3-8.1 c-2.3-2.6-5.1-5.7-8.3-9.3s-6.2-8.2-9.8-12.9c-7.5-9.3-14.2-21.4-21.8-34.1c-3.2-6.7-6.5-13.6-9.8-20.7 c-3.2-7.1-5.5-14.7-8.3-22.1c-10.2-30-14.1-61.7-14.7-85.4c0.4-11.8,0.7-21.7,1.2-28.6c1-6.9,1.5-10.8,1.5-10.8s6.4-3.7,12.7-7 c3.2-1.6,6.3-3.2,8.7-4.4c2.5-1.1,4.1-1.8,4.1-1.8l2.6-10.8c0,0-7.6,3-15.3,6.5c-3.9,1.7-7.7,3.6-10.3,5.1 c-2.7,1.5-4.6,2.5-4.6,2.5s-1.4-1.6-3.5-3.9c-2.2-2.4-4.9-5.6-7.4-8.9C140.5,373.8,135.6,366.7,135.6,366.7z"/><path d="M141.9,344.2c0,0-1.1,3.2-2.2,6.3c-1.1,3.2-1.7,6.5-1.7,6.5s4.9,7.3,9.9,14.1c5,6.8,10.2,13.1,10.2,13.1s7.8-3.8,15.4-7 c7.7-3.3,15.2-6.1,15.2-6.1s0.5-2.7,1.4-5.4c0.9-2.6,1.9-5.2,1.9-5.2s-2,0.6-5,1.5s-7.1,2.2-10.8,3.8c-7.6,3-15.3,6.5-15.3,6.5 s-5.1-6.6-10-13.7c-2.6-3.6-4.7-7.1-6.3-9.8C143,346,141.9,344.2,141.9,344.2z"/><path d="M149.7,322.2l-4.5,12.6c0,0,4.2,7.6,8.6,14.7c4.2,7.1,9.3,13.9,9.3,13.9s7.6-3.3,15.8-5.9c8-2.7,15.9-4.8,15.9-4.8 l3.7-10.5c0,0-7.7,1.9-15.6,4.3c-7.9,2.3-16,5.2-16,5.2s-4.5-6.9-8.7-14.3C153.8,330,149.7,322.2,149.7,322.2z"/></g><g><path d="M508,139.9l-13-3.1c0,0-1.5,1.1-3.8,2.9c-2.2,1.9-5.2,4.4-8.2,6.9c-5.8,5.1-11.2,10.2-11.2,10.2s-4-0.6-11-1.5 c-7.1-0.3-17.1-0.6-29.2-1.1c-24.2,0.6-56.5,4.7-87.1,15.1c-7.5,2.9-15.3,5.2-22.5,8.5c-7.2,3.4-14.2,6.8-21.1,10 c-13,7.7-25.3,14.6-34.8,22.2c-4.8,3.7-9.5,6.7-13.1,10c-3.7,3.3-6.8,6.1-9.5,8.5c-5.2,4.7-8.2,7.4-8.2,7.4l-12.9-13.1 c0,0-1.1,2.8-2.3,7.2c-1.2,4.3-2.8,10-4.4,15.8c-1.6,5.6-3,11.1-3.6,15.5c-0.7,4.3-1.2,7.1-1.2,7.1s2.6-1.2,6.4-3 c3.7-1.9,9.1-3.8,14.4-5.5c5.2-1.7,10.4-3.4,14.3-4.7c3.8-1.3,6.4-1.9,6.4-1.9l-12.9-13.1c0,0,2.9-2.6,8.1-7.3 c2.6-2.3,5.7-5.1,9.3-8.3c3.6-3.2,8.2-6.2,12.9-9.8c9.3-7.5,21.4-14.2,34.1-21.8c6.7-3.2,13.6-6.5,20.7-9.8 c7.1-3.2,14.7-5.5,22.1-8.3c30-10.2,61.7-14.1,85.4-14.7c11.8,0.4,21.7,0.7,28.6,1.2c6.9,1,10.8,1.5,10.8,1.5s3.7,6.4,7,12.7 c1.6,3.2,3.2,6.3,4.4,8.7c1.1,2.5,1.8,4.1,1.8,4.1l10.8,2.6c0,0-3-7.6-6.5-15.3c-1.7-3.9-3.6-7.7-5.1-10.3 c-1.5-2.7-2.5-4.6-2.5-4.6s1.6-1.4,3.9-3.5c2.4-2.2,5.6-4.9,8.9-7.4C500.9,144.8,508,139.9,508,139.9z"/><path d="M530.5,146.2c0,0-3.2-1.1-6.3-2.2c-3.2-1.1-6.5-1.7-6.5-1.7s-7.3,4.9-14.1,9.9c-6.8,5-13.1,10.2-13.1,10.2 s3.8,7.8,7,15.4c3.3,7.7,6.1,15.2,6.1,15.2s2.7,0.5,5.4,1.4c2.6,0.9,5.2,1.9,5.2,1.9s-0.6-2-1.5-5c-0.9-3-2.2-7.1-3.8-10.8 c-3-7.6-6.5-15.3-6.5-15.3s6.6-5.1,13.7-10c3.6-2.6,7.1-4.7,9.8-6.3C528.6,147.3,530.5,146.2,530.5,146.2z"/><path d="M552.5,154l-12.6-4.5c0,0-7.6,4.2-14.7,8.6c-7.1,4.2-13.9,9.3-13.9,9.3s3.3,7.6,5.9,15.8c2.7,8,4.8,15.9,4.8,15.9 l10.5,3.7c0,0-1.9-7.7-4.3-15.6c-2.3-7.9-5.2-16-5.2-16s6.9-4.5,14.3-8.7C544.7,158.1,552.5,154,552.5,154z"/></g></g></g></g></svg>