<!-- icon666.com - MILLIONS vector ICONS FREE --><svg id="Layer_1" enable-background="new 0 0 32 32" viewBox="0 0 32 32" xmlns="http://www.w3.org/2000/svg"><g fill="rgb(0,0,0)"><path d="m16 27.09c.59 0 1.12-.3 1.42-.81 2.41-4.1 6.44-11.45 6.44-14.6 0-4.33-3.52-7.86-7.86-7.86-4.33 0-7.86 3.52-7.86 7.86 0 3.15 4.03 10.5 6.44 14.6.3.51.83.81 1.42.81zm0-22.27c3.78 0 6.86 3.08 6.86 6.86 0 3.03-4.41 10.87-6.3 14.1-.24.41-.87.41-1.11 0-1.89-3.23-6.3-11.07-6.3-14.1-.01-3.78 3.07-6.86 6.85-6.86z" fill="rgb(0,0,0)" style="fill: rgb(60, 60, 60);"></path><path d="m20.48 12.02c0-2.47-2.01-4.48-4.48-4.48s-4.48 2.01-4.48 4.48 2.01 4.48 4.48 4.48 4.48-2.01 4.48-4.48zm-7.96 0c0-1.92 1.56-3.48 3.48-3.48s3.48 1.56 3.48 3.48-1.56 3.48-3.48 3.48-3.48-1.56-3.48-3.48z" fill="rgb(0,0,0)" style="fill: rgb(60, 60, 60);"></path><path d="m26 29.5h-20c-.28 0-.5.22-.5.5s.22.5.5.5h20c.28 0 .5-.22.5-.5s-.22-.5-.5-.5z" fill="rgb(0,0,0)" style="fill: rgb(60, 60, 60);"></path></g></svg>